# Mesh exported from SDKMESH

# Vertices
v 2.342603 -0.032968 3.569719
v 2.390769 0.205817 3.481808
v 2.332705 -0.010423 3.500127
v 2.240794 -0.141704 3.270840
v 2.231829 -0.181938 3.282047
v 2.231906 -0.211041 3.317999
v 2.244754 -0.193688 3.351270
v 2.458766 -0.050376 3.532077
v 2.450353 -0.031213 3.472922
v 2.500029 0.154257 3.456677
v 2.359135 -0.170430 3.256291
v 2.351514 -0.204630 3.265817
v 2.351580 -0.229367 3.296376
v 2.362500 -0.214617 3.324657
v 2.491020 0.176896 3.458181
v 2.390769 0.205817 3.481808
v 2.442853 -0.061889 3.546092
v 2.342603 -0.032968 3.569719
v 2.442853 -0.061889 3.546092
v 2.342603 -0.032968 3.569719
v 2.432956 -0.039343 3.476500
v 2.332705 -0.010423 3.500127
v 2.345004 -0.222608 3.327643
v 2.432956 -0.039343 3.476500
v 2.244754 -0.193688 3.351270
v 2.332705 -0.010423 3.500127
v 2.332157 -0.239961 3.294372
v 2.231906 -0.211041 3.317999
v 2.332157 -0.239961 3.294372
v 2.231906 -0.211041 3.317999
v 2.332079 -0.210859 3.258420
v 2.231829 -0.181938 3.282047
v 2.341045 -0.170624 3.247212
v 2.240794 -0.141704 3.270840
v 2.341045 -0.170624 3.247212
v 2.240794 -0.141704 3.270840
v 2.491020 0.176896 3.458181
v 2.390769 0.205817 3.481808
v 2.500029 0.154257 3.456677
v 2.359135 -0.170430 3.256291
v 2.332079 -0.210859 3.258420
v 2.351514 -0.204630 3.265817
v 2.332157 -0.239961 3.294372
v 2.351580 -0.229367 3.296376
v 2.362500 -0.214617 3.324657
v 2.351580 -0.229367 3.296376
v 2.450353 -0.031213 3.472922
v 2.458766 -0.050376 3.532077
v 2.450353 -0.031213 3.472922
v 2.442853 -0.061889 3.546092
v 2.458766 -0.050376 3.532077
v 2.491020 0.176896 3.458181
v 2.500029 0.154257 3.456677

# Normals
vn -0.937092 0.270336 0.220853
vn -0.937092 0.270335 0.220854
vn -0.937093 0.270333 0.220855
vn -0.937093 0.270332 0.220856
vn -0.937093 0.270332 0.220855
vn -0.937092 0.270335 0.220856
vn -0.937093 0.270333 0.220855
vn 0.937091 -0.270337 -0.220859
vn 0.937092 -0.270336 -0.220855
vn 0.937092 -0.270337 -0.220856
vn 0.937092 -0.270338 -0.220854
vn 0.937092 -0.270337 -0.220854
vn 0.937092 -0.270339 -0.220853
vn 0.937093 -0.270336 -0.220853
vn 0.441445 0.230297 0.867231
vn 0.295405 0.277028 0.914326
vn 0.441445 0.230297 0.867231
vn 0.295405 0.277028 0.914326
vn 0.010502 -0.950832 -0.309529
vn -0.322307 -0.913039 -0.249957
vn 0.010502 -0.950832 -0.309529
vn -0.322307 -0.913039 -0.249957
vn 0.194646 -0.800761 0.566475
vn 0.220193 -0.676106 0.703133
vn -0.065821 -0.758162 0.648736
vn 0.000927 -0.630742 0.775992
vn 0.161567 -0.899208 0.406597
vn -0.130141 -0.857617 0.497550
vn -0.349076 -0.728741 -0.589137
vn -0.349076 -0.728741 -0.589137
vn -0.331345 -0.489746 -0.806449
vn -0.331345 -0.489746 -0.806449
vn -0.278936 -0.199494 -0.939360
vn -0.278936 -0.199494 -0.939360
vn 0.317743 0.185565 -0.929841
vn -0.045510 0.532672 -0.845097
vn 0.225818 0.433865 -0.872220
vn -0.045510 0.532672 -0.845097
vn 0.478150 0.298563 -0.825974
vn 0.476506 -0.016367 -0.879019
vn 0.444601 -0.527957 -0.723596
vn 0.444601 -0.527957 -0.723596
vn 0.439030 -0.697889 -0.565866
vn 0.439030 -0.697889 -0.565866
vn 0.439686 -0.782279 0.441265
vn 0.437910 -0.855288 0.276977
vn 0.427250 -0.683984 0.591290
vn 0.342095 -0.878577 -0.333276
vn 0.342095 -0.878577 -0.333276
vn 0.441445 0.230297 0.867231
vn 0.576127 0.177642 0.797823
vn 0.441445 0.230297 0.867231
vn 0.576127 0.177642 0.797823

# Texture Coordinates
vt 0.426023 0.102037
vt 0.426023 0.084967
vt 0.429998 0.099232
vt 0.448001 0.103206
vt 0.448236 0.106013
vt 0.446599 0.108584
vt 0.444029 0.108116
vt 0.426176 0.076777
vt 0.429778 0.074109
vt 0.426250 0.060701
vt 0.446141 0.078402
vt 0.446410 0.080303
vt 0.445401 0.081916
vt 0.443722 0.081556
vt 0.426023 0.060085
vt 0.424061 0.055793
vt 0.426023 0.077154
vt 0.424539 0.079966
vt 0.426023 0.077154
vt 0.424539 0.079966
vt 0.429998 0.074348
vt 0.429558 0.076423
vt 0.444029 0.083232
vt 0.429998 0.074348
vt 0.445361 0.086687
vt 0.429558 0.076423
vt 0.446599 0.083700
vt 0.448610 0.087277
vt 0.446599 0.083700
vt 0.448610 0.087277
vt 0.448235 0.081129
vt 0.451629 0.083315
vt 0.448001 0.078322
vt 0.450381 0.077625
vt 0.448001 0.078322
vt 0.450381 0.077625
vt 0.426023 0.060085
vt 0.424061 0.055793
vt 0.426250 0.060701
vt 0.446141 0.078402
vt 0.448235 0.081129
vt 0.446410 0.080303
vt 0.446599 0.083700
vt 0.445401 0.081916
vt 0.443722 0.081556
vt 0.445401 0.081916
vt 0.429778 0.074109
vt 0.426176 0.076777
vt 0.429778 0.074109
vt 0.376287 0.246536
vt 0.375419 0.248395
vt 0.376284 0.271710
vt 0.375477 0.270540

# Faces
f 1/1/1 2/2/2 3/3/3
f 2/2/2 4/4/4 3/3/3
f 4/4/4 5/5/5 3/3/3
f 6/6/6 7/7/7 5/5/5
f 3/3/3 5/5/5 7/7/7
f 8/8/8 9/9/9 10/10/10
f 10/10/10 9/9/9 11/11/11
f 11/11/11 9/9/9 12/12/12
f 13/13/13 12/12/12 14/14/14
f 12/12/12 9/9/9 14/14/14
f 15/15/15 16/16/16 17/17/17
f 17/17/17 16/16/16 18/18/18
f 19/19/19 20/20/20 21/21/21
f 21/21/21 20/20/20 22/22/22
f 23/23/23 24/24/24 25/25/25
f 24/24/24 26/26/26 25/25/25
f 27/27/27 23/23/23 28/28/28
f 23/23/23 25/25/25 28/28/28
f 29/29/29 30/30/30 31/31/31
f 31/31/31 30/30/30 32/32/32
f 31/31/31 32/32/32 33/33/33
f 33/33/33 32/32/32 34/34/34
f 35/35/35 36/36/36 37/37/37
f 37/37/37 36/36/36 38/38/38
f 37/37/37 39/39/39 35/35/35
f 35/35/35 39/39/39 40/40/40
f 35/35/35 40/40/40 41/41/41
f 41/41/41 40/40/40 42/42/42
f 43/43/43 41/41/41 44/44/44
f 41/41/41 42/42/42 44/44/44
f 23/23/23 27/27/27 45/45/45
f 27/27/27 46/46/46 45/45/45
f 23/23/23 45/45/45 24/24/24
f 24/24/24 45/45/45 47/47/47
f 19/19/19 21/21/21 48/48/48
f 21/21/21 49/49/49 48/48/48
f 50/50/50 51/51/51 52/52/52
f 52/52/52 51/51/51 53/53/53
